<?xml version="1.0" encoding="UTF-8"?>
<svg width="84.667mm" height="119.81mm" version="1.1" viewBox="0 0 299.99999 424.50704" xmlns="http://www.w3.org/2000/svg">
 <defs>
  <linearGradient id="d" x1="379.62" x2="402.29" y1="414.91" y2="425.93" gradientUnits="userSpaceOnUse">
   <stop stop-color="#530000" offset="0"/>
   <stop stop-color="#530000" stop-opacity="0" offset="1"/>
  </linearGradient>
  <radialGradient id="e" cx="246.59" cy="591.48" r="101.14" gradientTransform="matrix(.12344 .18492 -.87032 .58095 695.52 218.74)" gradientUnits="userSpaceOnUse">
   <stop stop-color="#d40000" offset="0"/>
   <stop stop-color="#530000" offset="1"/>
  </radialGradient>
  <radialGradient id="f" cx="369.86" cy="507.16" r="92.342" gradientTransform="matrix(.23119 .18481 -.82645 1.0339 664.83 -79.024)" gradientUnits="userSpaceOnUse">
   <stop stop-color="#d40000" offset="0"/>
   <stop stop-color="#530000" stop-opacity=".074713" offset="1"/>
  </radialGradient>
 </defs>
 <g transform="translate(-141.78 -150.09)">
  <g transform="matrix(.73652 0 0 .73652 37.355 77.417)" fill-rule="evenodd">
   <path d="m159.92 659.8s3.1405 14.736-6.5226 14.736-16.828-22.209-4.59-39.619c23.433-33.338 120.31-103.4 143.26-146.4 11.698-21.918 61.361-91.558 78.996-134.8 8.7767-21.521 18.198-42.538 25.667-66.751s11.294-46.549 18.542-52.83c6.889-5.9704 11.354-9.4215 19.085-9.4215 7.7305 0 40.93 9.641 42.759 17.152 5.1055 20.965 5.6632 47.83-0.48314 60.636-4.8334 10.07-3.0951 26.071-7.2473 37.444-5.5563 15.219-37.344 64.345-45.658 78.513-36.72 62.569-83.903 102.59-95.423 115.47-14.253 15.944-61.135 56.6-73.198 65.226-5.0712 3.6264-19.988 15.658-28.989 17.394-20.051 3.8652-64.26 30.68-66.192 43.242z" fill="#d40000" stroke="#ad0000" stroke-width="1px"/>
   <path d="m143.1 650.02 0.2868 7.9118s-6.0883-5.1186 5.4282-23.014c23.433-36.412 120.31-103.4 143.26-146.4 11.698-21.918 61.361-91.558 78.996-134.8 8.7767-21.521 18.198-42.538 25.667-66.751s11.294-46.549 18.542-52.83c6.889-5.9704 11.354-9.4215 19.085-9.4215-9.5423 4.7108-19.809 13.045-22.604 24.422-11.308 46.033-38.415 117.06-55.667 146.13-43.578 75.796-73.053 126.67-138.67 179.73-23.823 24.015-67.473 51.954-74.323 75.013z"/>
   <path d="m348.38 497.95c9.3651-12.175 59-83.349 62.746-96.46s51.508-100.21 51.508-109.57-3.6035-33.653-9.2226-37.399c-5.619-3.746-14.19 0.87544-14.19 0.87544l-15.086-11.676s-4.5807 2.3107-8.3268 3.2472c-3.746 0.93651-10.302 49.635-18.73 69.302-8.4286 19.667-38.397 78.667-50.571 98.333-12.175 19.667-42.143 68.365-58.063 87.095-126.53 140.04 14.776 52.622 59.936-3.746z" fill="url(#d)"/>
   <path d="m424.22 245.61s-3.2269-6.5352-7.9094-4.6622-12.673 30.365-14.546 40.667-19.667 57.127-28.095 73.984c-8.4286 16.857-26.222 50.571-35.587 67.428-9.3651 16.857-28.095 45.889-41.206 63.682s-29.032 36.524-41.206 51.508c-12.175 14.984 17.794-9.3651 31.841-26.222 14.048-16.857 57.127-75.857 72.111-102.08 14.984-26.222 27.159-61.809 36.524-81.476 9.3651-19.667 15.921-37.46 17.794-50.571s0-21.54 3.746-25.286 6.5352-6.9729 6.5352-6.9729z" fill="#530000"/>
   <path d="m453.2 291.12s-9.576 24.99-13.044 34.508c-4.8949 13.436-28.095 55.254-30.905 60.873-2.8095 5.619 18.351-21.31 29.069-45.806 5.0366-11.511 15.883-42.226 15.883-42.226z" fill="#fff"/>
   <path d="m404.47 412.49c-6.0856 12.94-9.2676 12.455-12.572 17.798s4.1422 3.9614 17.024-19.468c6.0533-11.01 19.623-40.623 19.623-40.623-27.594 49.824-21.348 36.517-24.075 42.294z" fill="#fff"/>
   <path d="m165.61 637.52s12.237-14.685 35.488-27.738 74.648-44.054 79.95-49.765 11.014-11.014 11.014-11.014-16.724 24.067-53.028 45.278-46.502 25.29-57.107 32.633c-10.606 7.3424-16.316 12.237-16.316 12.237z" fill="#fff" fill-opacity=".77011"/>
   <g transform="translate(-109.26 -6.6221)">
    <path d="m543.61 230.64-14.516 4.2143s-14.048 12.643-10.77 14.048c3.2778 1.4048 8.4286 0.46825 12.175 2.3413 3.746 1.873 16.857 13.579 16.857 13.579s10.77-8.4286 14.048-6.0873c3.2778 2.3413 9.3651 6.0873 9.3651 6.0873s2.3413-6.0873 7.4921-6.0873 10.302 7.4921 10.302 7.4921v-11.238c0-1.873-0.9365-6.5556-2.3413-8.8968-1.4048-2.3413-5.1508-5.619-5.1508-9.8333s-0.93651-18.262 0.93651-21.071c1.873-2.8095 28.095-49.401 31.841-54.552 3.746-5.1508 30.905-37.694 33.246-38.631 2.3413-0.93651 4.6825 1.873 8.4286 0.46825 3.746-1.4048 3.9802-14.516-0.46826-16.389-3.0209-1.272-6.5555-1.4801-12.175 2.8095-6.4035 4.8884-29.537 29.237-36.992 38.865-8.685 11.215-29.968 48.464-34.182 54.317-1.8354 2.5491-7.4921 10.77-9.8333 12.643-2.3413 1.873-18.262 15.921-18.262 15.921z" fill="#1a911a"/>
    <path d="m543.61 230.64-14.516 4.2143s-14.048 12.643-10.77 14.048c3.2778 1.4048 8.4286 0.46825 12.175 2.3413 3.746 1.873 16.857 11.579 16.857 11.579s10.604-7.2563 13.882-4.9151c3.2778 2.3413 8.8684 5.0806 8.8684 5.0806s3.3346-5.0806 8.4854-5.0806 9.3082 5.4921 9.3082 5.4921l-0.16555-8.4103c-0.0369-1.8726-0.6054-6.5556-2.0102-8.8968-1.4048-2.3413 0.49666 0-17.236-8.5089-3.7995-1.8232-13.01-1.8562-11.811-5.0128 1.4616-3.8479 3.8213-9.691 6.8113-3.2731 2.9901 6.4179 2.9569-13.658 15.857-31.237 12.41-16.911 12.432-23.261 24.238-35.935 4.3411-4.6602 0.11196-5.2461 13.876-20.255 2.2602-5.554 8.8839-8.8176 6.1392-13.768-2.7009 3.0457-7.882 7.2092-17.712 19.656-8.685 11.215-29.968 48.464-34.182 54.317-1.8354 2.5491-7.4921 10.77-9.8333 12.643-2.3413 1.873-18.262 15.921-18.262 15.921z" fill="#005400"/>
    <path d="m637.05 114.51s2.1522-2.98 4.6355-4.6355 4.6355-3.1455 4.6355-3.1455c-1.4142 4.9171-0.66221 8.7743 0 10.43 0.66221 1.6555 5.1321 3.4766 2.8144 4.1388-2.3177 0.66221-2.3177-6.6221-4.801-5.4632s-11.92 5.6288-11.423 3.4766c0.49666-2.1522 4.1388-4.801 4.1388-4.801z" fill="#005400"/>
   </g>
   <path d="m211.65 600.97s41.206-14.048 59-26.222c17.794-12.175 57.352-52.311 66.717-64.485-21.764-7.9382 8.4189-65.431 9.1398-95.658-12.175 19.667-42.143 68.365-58.063 87.095s-52.444 56.19-63.682 65.555c-11.238 9.3651-41.206 36.524-52.444 45.889s-30.109 26.222-30.109 39.333 4.8234 19.667 11.379 19.667 1.873-9.3651 1.873-16.857c0-7.492 5.619-17.794 14.048-24.349s42.143-29.968 42.143-29.968z" fill="url(#e)"/>
   <path d="m256.52 582.38s10.994-4.5807 19.697-11.91c8.7034-7.3292 21.071-18.781 30.233-27.943 9.1615-9.1615 27.026-25.652 35.73-36.646s36.188-49.014 38.02-52.22 27.484-48.098 17.865-47.64-55.427 22.446-64.13 33.897c-8.7034 11.452-46.724 66.879-56.801 76.04-10.078 9.1615-65.505 61.84-61.382 61.84 4.1227 0 40.769 4.5807 40.769 4.5807z" fill="url(#f)" opacity=".857"/>
   <path d="m433.67 224.02c-5.4345-0.43515-13.862 4.8448-13.862 4.8448l-10.67 11.133 0.49293 2.9576s6.2293-0.58691 9.1616 0.14438 8.1757 3.8589 8.1757 3.8589-0.5775-7.4539 1.8872-11.397 12.816-9.8587 10.352-9.8587c-2.4647 0-0.1023-1.2478-5.5368-1.683z" fill="#003800"/>
  </g>
 </g>
</svg>
